<?xml version="1.0" encoding="UTF-8" standalone="no"?>
<!-- Created with Inkscape (http://www.inkscape.org/) -->

<svg
   xmlns:dc="http://purl.org/dc/elements/1.1/"
   xmlns:cc="http://creativecommons.org/ns#"
   xmlns:rdf="http://www.w3.org/1999/02/22-rdf-syntax-ns#"
   xmlns:svg="http://www.w3.org/2000/svg"
   xmlns="http://www.w3.org/2000/svg"
   xmlns:sodipodi="http://sodipodi.sourceforge.net/DTD/sodipodi-0.dtd"
   xmlns:inkscape="http://www.inkscape.org/namespaces/inkscape"
   width="210mm"
   height="297mm"
   viewBox="0 0 744.09448819 1052.3622047"
   id="svg2"
   version="1.1"
   inkscape:version="0.91 r13725"
   sodipodi:docname="launch-button-down.svg">
  <defs
     id="defs4" />
  <sodipodi:namedview
     id="base"
     pagecolor="#ffffff"
     bordercolor="#666666"
     borderopacity="1.0"
     inkscape:pageopacity="0.0"
     inkscape:pageshadow="2"
     inkscape:zoom="0.35"
     inkscape:cx="-39.285714"
     inkscape:cy="520"
     inkscape:document-units="px"
     inkscape:current-layer="layer1"
     showgrid="false"
     inkscape:window-width="1366"
     inkscape:window-height="719"
     inkscape:window-x="0"
     inkscape:window-y="0"
     inkscape:window-maximized="1" />
  <metadata
     id="metadata7">
    <rdf:RDF>
      <cc:Work
         rdf:about="">
        <dc:format>image/svg+xml</dc:format>
        <dc:type
           rdf:resource="http://purl.org/dc/dcmitype/StillImage" />
        <dc:title></dc:title>
      </cc:Work>
    </rdf:RDF>
  </metadata>
  <g
     inkscape:label="Layer 1"
     inkscape:groupmode="layer"
     id="layer1">
    <path
       style="fill:#aa0000;fill-rule:evenodd;stroke:#000000;stroke-width:8.5;stroke-linecap:butt;stroke-linejoin:miter;stroke-opacity:1;fill-opacity:1;stroke-miterlimit:4;stroke-dasharray:none"
       d="M 306.6543 316.02344 A 137.14285 137.14285 0 0 0 225.71484 440.93359 A 137.14285 137.14285 0 0 0 362.85742 578.07617 A 137.14285 137.14285 0 0 0 447.63477 548.69922 A 137.14285 137.14285 0 0 1 441.12305 551.61328 A 137.14285 137.14285 0 0 1 428.11328 555.93555 A 137.14285 137.14285 0 0 1 414.73828 558.9375 A 137.14285 137.14285 0 0 1 401.12891 560.58984 A 137.14285 137.14285 0 0 1 391.42773 560.93359 A 137.14285 137.14285 0 0 1 377.73633 560.24805 A 137.14285 137.14285 0 0 1 364.18164 558.19922 A 137.14285 137.14285 0 0 1 350.90039 554.80859 A 137.14285 137.14285 0 0 1 338.02344 550.10742 A 137.14285 137.14285 0 0 1 325.67969 544.14453 A 137.14285 137.14285 0 0 1 313.99219 536.98047 A 137.14285 137.14285 0 0 1 303.07812 528.68359 A 137.14285 137.14285 0 0 1 293.04883 519.33984 A 137.14285 137.14285 0 0 1 284 509.04102 A 137.14285 137.14285 0 0 1 276.02734 497.88867 A 137.14285 137.14285 0 0 1 269.20508 485.99805 A 137.14285 137.14285 0 0 1 263.60547 473.48633 A 137.14285 137.14285 0 0 1 259.2832 460.47656 A 137.14285 137.14285 0 0 1 256.28125 447.09961 A 137.14285 137.14285 0 0 1 254.62891 433.49219 A 137.14285 137.14285 0 0 1 254.28516 423.79102 A 137.14285 137.14285 0 0 1 254.9707 410.09961 A 137.14285 137.14285 0 0 1 257.01953 396.54492 A 137.14285 137.14285 0 0 1 260.41016 383.26172 A 137.14285 137.14285 0 0 1 265.11133 370.38477 A 137.14285 137.14285 0 0 1 271.07422 358.04102 A 137.14285 137.14285 0 0 1 278.24023 346.35352 A 137.14285 137.14285 0 0 1 286.53516 335.44141 A 137.14285 137.14285 0 0 1 295.88086 325.41016 A 137.14285 137.14285 0 0 1 306.17969 316.36328 A 137.14285 137.14285 0 0 1 306.6543 316.02344 z "
       id="path4161" />
    <path
       style="fill:#ff0000;fill-rule:evenodd;stroke:#000000;stroke-width:8.5;stroke-linecap:butt;stroke-linejoin:miter;stroke-opacity:1;fill-opacity:1;stroke-miterlimit:4;stroke-dasharray:none"
       d="M 306.6543 316.02344 A 137.14285 137.14285 0 0 0 306.17969 316.36328 A 137.14285 137.14285 0 0 0 295.88086 325.41016 A 137.14285 137.14285 0 0 0 286.53516 335.44141 A 137.14285 137.14285 0 0 0 278.24023 346.35352 A 137.14285 137.14285 0 0 0 271.07422 358.04102 A 137.14285 137.14285 0 0 0 265.11133 370.38477 A 137.14285 137.14285 0 0 0 260.41016 383.26172 A 137.14285 137.14285 0 0 0 257.01953 396.54492 A 137.14285 137.14285 0 0 0 254.9707 410.09961 A 137.14285 137.14285 0 0 0 254.28516 423.79102 A 137.14285 137.14285 0 0 0 254.62891 433.49219 A 137.14285 137.14285 0 0 0 256.28125 447.09961 A 137.14285 137.14285 0 0 0 259.2832 460.47656 A 137.14285 137.14285 0 0 0 263.60547 473.48633 A 137.14285 137.14285 0 0 0 269.20508 485.99805 A 137.14285 137.14285 0 0 0 276.02734 497.88867 A 137.14285 137.14285 0 0 0 284 509.04102 A 137.14285 137.14285 0 0 0 293.04883 519.33984 A 137.14285 137.14285 0 0 0 303.07812 528.68359 A 137.14285 137.14285 0 0 0 313.99219 536.98047 A 137.14285 137.14285 0 0 0 325.67969 544.14453 A 137.14285 137.14285 0 0 0 338.02344 550.10742 A 137.14285 137.14285 0 0 0 350.90039 554.80859 A 137.14285 137.14285 0 0 0 364.18164 558.19922 A 137.14285 137.14285 0 0 0 377.73633 560.24805 A 137.14285 137.14285 0 0 0 391.42773 560.93359 A 137.14285 137.14285 0 0 0 401.12891 560.58984 A 137.14285 137.14285 0 0 0 414.73828 558.9375 A 137.14285 137.14285 0 0 0 428.11328 555.93555 A 137.14285 137.14285 0 0 0 441.12305 551.61328 A 137.14285 137.14285 0 0 0 447.63477 548.69922 A 137.14285 137.14285 0 0 0 500 440.93359 A 137.14285 137.14285 0 0 0 362.85742 303.79102 A 137.14285 137.14285 0 0 0 306.6543 316.02344 z "
       id="path3336" />
  </g>
</svg>
